<mxfile host="app.diagrams.net" agent="Mozilla/5.0 (Windows NT 10.0; Win64; x64) AppleWebKit/537.36 (KHTML, like Gecko) Chrome/137.0.0.0 Safari/537.36" version="27.2.0">
  <diagram name="Page-1" id="anNM_wUKs-vYBkgMwatS">
    <mxGraphModel dx="983" dy="548" grid="0" gridSize="10" guides="1" tooltips="1" connect="1" arrows="1" fold="1" page="1" pageScale="1" pageWidth="8000" pageHeight="3000" math="0" shadow="0">
      <root>
        <mxCell id="0" />
        <mxCell id="1" parent="0" />
        <mxCell id="aZQP9lEZwAYgw-B2ckVX-3" value="" style="edgeStyle=orthogonalEdgeStyle;rounded=0;orthogonalLoop=1;jettySize=auto;html=1;flowAnimation=1;" edge="1" parent="1" source="aZQP9lEZwAYgw-B2ckVX-1" target="aZQP9lEZwAYgw-B2ckVX-2">
          <mxGeometry relative="1" as="geometry" />
        </mxCell>
        <mxCell id="aZQP9lEZwAYgw-B2ckVX-1" value="Authenticate using ApplicationIdentity controller to obtain a JWT token" style="rounded=1;whiteSpace=wrap;html=1;" vertex="1" parent="1">
          <mxGeometry x="968" y="158" width="120" height="60" as="geometry" />
        </mxCell>
        <mxCell id="aZQP9lEZwAYgw-B2ckVX-17" value="" style="edgeStyle=orthogonalEdgeStyle;rounded=0;orthogonalLoop=1;jettySize=auto;html=1;flowAnimation=1;" edge="1" parent="1" source="aZQP9lEZwAYgw-B2ckVX-2" target="aZQP9lEZwAYgw-B2ckVX-16">
          <mxGeometry relative="1" as="geometry" />
        </mxCell>
        <mxCell id="aZQP9lEZwAYgw-B2ckVX-2" value="Create Tenants under the authenticated application" style="whiteSpace=wrap;html=1;rounded=1;" vertex="1" parent="1">
          <mxGeometry x="1227" y="158" width="120" height="60" as="geometry" />
        </mxCell>
        <mxCell id="aZQP9lEZwAYgw-B2ckVX-25" value="" style="edgeStyle=orthogonalEdgeStyle;rounded=0;orthogonalLoop=1;jettySize=auto;html=1;flowAnimation=1;" edge="1" parent="1" source="aZQP9lEZwAYgw-B2ckVX-4" target="aZQP9lEZwAYgw-B2ckVX-24">
          <mxGeometry relative="1" as="geometry" />
        </mxCell>
        <mxCell id="aZQP9lEZwAYgw-B2ckVX-4" value="Create the agent for a specific tenant using /agents/createAgent" style="whiteSpace=wrap;html=1;rounded=1;" vertex="1" parent="1">
          <mxGeometry x="890" y="320" width="120" height="60" as="geometry" />
        </mxCell>
        <mxCell id="aZQP9lEZwAYgw-B2ckVX-9" value="" style="edgeStyle=orthogonalEdgeStyle;rounded=0;orthogonalLoop=1;jettySize=auto;html=1;flowAnimation=1;" edge="1" parent="1" source="aZQP9lEZwAYgw-B2ckVX-6" target="aZQP9lEZwAYgw-B2ckVX-8">
          <mxGeometry relative="1" as="geometry">
            <Array as="points">
              <mxPoint x="1422" y="350" />
              <mxPoint x="1422" y="350" />
            </Array>
          </mxGeometry>
        </mxCell>
        <mxCell id="aZQP9lEZwAYgw-B2ckVX-6" value="Create a Chat Configuration using /startConversations" style="whiteSpace=wrap;html=1;rounded=1;" vertex="1" parent="1">
          <mxGeometry x="1324" y="320" width="120" height="60" as="geometry" />
        </mxCell>
        <mxCell id="aZQP9lEZwAYgw-B2ckVX-21" value="" style="edgeStyle=orthogonalEdgeStyle;rounded=0;orthogonalLoop=1;jettySize=auto;html=1;" edge="1" parent="1" source="aZQP9lEZwAYgw-B2ckVX-8" target="aZQP9lEZwAYgw-B2ckVX-20">
          <mxGeometry relative="1" as="geometry" />
        </mxCell>
        <mxCell id="aZQP9lEZwAYgw-B2ckVX-8" value="Start chatting via /chat/chat" style="whiteSpace=wrap;html=1;rounded=1;" vertex="1" parent="1">
          <mxGeometry x="1538" y="320" width="120" height="60" as="geometry" />
        </mxCell>
        <mxCell id="aZQP9lEZwAYgw-B2ckVX-14" style="edgeStyle=orthogonalEdgeStyle;rounded=0;orthogonalLoop=1;jettySize=auto;html=1;entryX=0.5;entryY=0;entryDx=0;entryDy=0;" edge="1" parent="1" source="aZQP9lEZwAYgw-B2ckVX-13" target="aZQP9lEZwAYgw-B2ckVX-1">
          <mxGeometry relative="1" as="geometry" />
        </mxCell>
        <mxCell id="aZQP9lEZwAYgw-B2ckVX-13" value="START" style="ellipse;whiteSpace=wrap;html=1;" vertex="1" parent="1">
          <mxGeometry x="968" y="36" width="120" height="80" as="geometry" />
        </mxCell>
        <mxCell id="aZQP9lEZwAYgw-B2ckVX-26" style="edgeStyle=orthogonalEdgeStyle;rounded=0;orthogonalLoop=1;jettySize=auto;html=1;flowAnimation=1;" edge="1" parent="1" source="aZQP9lEZwAYgw-B2ckVX-16" target="aZQP9lEZwAYgw-B2ckVX-4">
          <mxGeometry relative="1" as="geometry">
            <Array as="points">
              <mxPoint x="1535" y="255" />
              <mxPoint x="950" y="255" />
            </Array>
          </mxGeometry>
        </mxCell>
        <mxCell id="aZQP9lEZwAYgw-B2ckVX-16" value="&lt;div style=&quot;line-height: 19px;&quot;&gt;Fetch required metadata fields for an agent template using GET /agentTemplates&lt;/div&gt;" style="whiteSpace=wrap;html=1;rounded=1;" vertex="1" parent="1">
          <mxGeometry x="1450" y="158" width="170" height="60" as="geometry" />
        </mxCell>
        <mxCell id="aZQP9lEZwAYgw-B2ckVX-20" value="END" style="ellipse;whiteSpace=wrap;html=1;rounded=1;" vertex="1" parent="1">
          <mxGeometry x="1558" y="429" width="80" height="80" as="geometry" />
        </mxCell>
        <mxCell id="aZQP9lEZwAYgw-B2ckVX-27" style="edgeStyle=orthogonalEdgeStyle;rounded=0;orthogonalLoop=1;jettySize=auto;html=1;flowAnimation=1;" edge="1" parent="1" source="aZQP9lEZwAYgw-B2ckVX-24" target="aZQP9lEZwAYgw-B2ckVX-6">
          <mxGeometry relative="1" as="geometry" />
        </mxCell>
        <mxCell id="aZQP9lEZwAYgw-B2ckVX-24" value="Activate Agent using&amp;nbsp;&lt;br&gt;&lt;span style=&quot;text-align: left;&quot;&gt;/activateAgent/{agentId}&lt;/span&gt;" style="whiteSpace=wrap;html=1;rounded=1;" vertex="1" parent="1">
          <mxGeometry x="1073" y="320" width="150" height="60" as="geometry" />
        </mxCell>
      </root>
    </mxGraphModel>
  </diagram>
</mxfile>
